<svg width="17" height="16" viewBox="0 0 17 16" fill="none" xmlns="http://www.w3.org/2000/svg">
<path d="M8.5 10C9.60457 10 10.5 9.10457 10.5 8C10.5 6.89543 9.60457 6 8.5 6C7.39543 6 6.5 6.89543 6.5 8C6.5 9.10457 7.39543 10 8.5 10Z" fill="#444444"/>
<path d="M15.2 1.3C14.3 0.4 13.2 0 11.8 0H5.2C2.4 0 0.5 1.9 0.5 4.7V11.3C0.5 12.7 0.9 13.9 1.9 14.7C2.8 15.6 3.9 16 5.2 16H11.8C13.2 16 14.4 15.6 15.2 14.7C16 13.8 16.5 12.7 16.5 11.3V4.7C16.5 3.3 16.1 2.1 15.2 1.3ZM8.5 12.1C6.3 12.1 4.4 10.3 4.4 8C4.4 5.7 6.3 3.9 8.5 3.9C10.7 3.9 12.6 5.7 12.6 8C12.6 10.3 10.7 12.1 8.5 12.1ZM13.1 4.7C12.4 4.7 11.8 4.2 11.8 3.4C11.8 2.6 12.3 2.1 13.1 2.1C13.8 2.1 14.4 2.7 14.4 3.4C14.4 4.1 13.8 4.7 13.1 4.7Z" fill="#444444"/>
</svg>
