<svg width="41" height="40" viewBox="0 0 41 40" fill="none" xmlns="http://www.w3.org/2000/svg">
<circle cx="20.5" cy="20" r="20" fill="white" fill-opacity="0.3"/>
<path d="M23.2 13.1551C24.7 12.6551 25.8 13.4551 26.4 14.2551C26.9 14.0551 27.5 13.8551 28.1 13.6551C28.1 14.4551 27.6 15.0551 27.3 15.2551C28 15.4551 28.5 14.8551 28.5 14.8551C28.4 15.7551 27.6 16.5551 27.1 16.7551C26.9 23.0551 24.3 27.1551 18.2 27.0551C17.7 27.0551 18.3 27.0551 17.8 27.0551C17.5 27.0551 14.1 26.6551 13.5 25.2551C15.5 25.4551 16.9 24.8551 17.6 24.1551C16.8 23.8551 15.2 23.7551 15 21.3551C15.3 21.5551 15.5 21.6551 16.1 21.5551C15 20.7551 13.8 20.0551 13.9 18.0551C14.2 18.3551 14.8 18.5551 15.1 18.4551C14.5 18.2551 13.3 15.3551 14.3 13.8551C15.9 15.5551 17.6 17.2551 20.6 17.3551C20.8 15.2551 21.6 13.8551 23.2 13.1551Z" fill="#444444"/>
</svg>
