<svg width="72" height="87" viewBox="0 0 72 87" fill="none" xmlns="http://www.w3.org/2000/svg">
<path d="M53.849 1.49C53.849 0.754 53.271 0 52.538 0H9.553C8.82 0 8.172 0.754 8.172 1.49V5.012H53.848L53.849 1.49Z" fill="#363636"/>
<path d="M54.702 81.809H45.105V71.426H38.147V73.933H19.274C18.737 72.679 17.517 71.785 16.093 71.785H4.059C2.142 71.784 0.5 73.387 0.5 75.311V78.329C0.5 80.253 2.142 81.809 4.059 81.809H16.094C17.605 81.809 18.886 80.913 19.363 79.483H38.148V81.809H28.63C28.097 81.809 27.62 82.246 27.62 82.781V85.953C27.62 86.488 28.098 87.001 28.63 87.001H54.702C55.235 87.001 55.632 86.488 55.632 85.953V82.78C55.632 82.245 55.235 81.809 54.702 81.809Z" fill="#363636"/>
<path d="M61.166 12.39C60.305 9.453 57.599 7.34 54.395 7.34H7.648C3.75 7.34 0.5 10.449 0.5 14.361V61.261C0.5 65.173 3.75 68.382 7.648 68.382H54.395C58.293 68.382 61.521 65.173 61.521 61.261V50.915C67.587 46.711 71.522 39.704 71.522 31.751C71.521 23.672 67.39 16.57 61.166 12.39ZM12.738 62.151C9.479 62.151 6.837 59.501 6.837 56.23C6.837 52.96 9.479 50.308 12.738 50.308C15.997 50.308 18.64 52.96 18.64 56.23C18.64 59.501 15.997 62.151 12.738 62.151ZM18.699 29.546C18.699 30.332 18.064 30.968 17.281 30.968H8.341C7.558 30.968 6.923 30.331 6.923 29.546V15.386C6.923 14.6 7.558 13.963 8.341 13.963H17.28C18.063 13.963 18.698 14.6 18.698 15.386L18.699 29.546ZM48.262 51.858C37.186 51.858 28.205 42.848 28.205 31.735C28.205 20.622 37.185 11.611 48.262 11.611C59.339 11.611 68.32 20.621 68.32 31.735C68.32 42.849 59.339 51.858 48.262 51.858Z" fill="#363636"/>
<path d="M48.262 43.964C54.9932 43.964 60.45 38.4889 60.45 31.735C60.45 24.9811 54.9932 19.506 48.262 19.506C41.5308 19.506 36.074 24.9811 36.074 31.735C36.074 38.4889 41.5308 43.964 48.262 43.964Z" fill="#363636"/>
<path d="M32.062 33.171C32.8545 33.171 33.497 32.5285 33.497 31.736C33.497 30.9435 32.8545 30.301 32.062 30.301C31.2695 30.301 30.627 30.9435 30.627 31.736C30.627 32.5285 31.2695 33.171 32.062 33.171Z" fill="#363636"/>
<path d="M64.463 33.171C65.2555 33.171 65.898 32.5285 65.898 31.736C65.898 30.9435 65.2555 30.301 64.463 30.301C63.6705 30.301 63.028 30.9435 63.028 31.736C63.028 32.5285 63.6705 33.171 64.463 33.171Z" fill="#363636"/>
<path d="M39.609 19.429C40.4015 19.429 41.044 18.7865 41.044 17.994C41.044 17.2015 40.4015 16.559 39.609 16.559C38.8165 16.559 38.174 17.2015 38.174 17.994C38.174 18.7865 38.8165 19.429 39.609 19.429Z" fill="#363636"/>
<path d="M56.915 46.912C57.7048 46.912 58.345 46.2691 58.345 45.476C58.345 44.6829 57.7048 44.04 56.915 44.04C56.1252 44.04 55.485 44.6829 55.485 45.476C55.485 46.2691 56.1252 46.912 56.915 46.912Z" fill="#363636"/>
<path d="M56.197 19C56.9895 19 57.632 18.3575 57.632 17.565C57.632 16.7725 56.9895 16.13 56.197 16.13C55.4045 16.13 54.762 16.7725 54.762 17.565C54.762 18.3575 55.4045 19 56.197 19Z" fill="#363636"/>
<path d="M40.328 47.341C41.1205 47.341 41.763 46.6985 41.763 45.906C41.763 45.1135 41.1205 44.471 40.328 44.471C39.5355 44.471 38.893 45.1135 38.893 45.906C38.893 46.6985 39.5355 47.341 40.328 47.341Z" fill="#363636"/>
</svg>
