<svg width="108" height="66" viewBox="0 0 108 66" fill="none" xmlns="http://www.w3.org/2000/svg">
<path d="M99.467 5.07411C100.219 6.51511 100.676 8.15411 100.676 9.89211V30.9941C100.676 35.6101 97.584 39.5211 93.43 40.8941C92.105 44.8811 89.652 48.7481 85.379 51.3261C76.703 56.5571 54.255 56.1631 54.181 56.1631C54.103 56.1631 31.668 56.5581 22.992 51.3261C18.776 48.7811 16.284 44.9791 14.95 41.0471C10.532 39.8381 7.194 35.7961 7.194 30.9941V9.89311C7.194 8.20511 7.621 6.61111 8.333 5.20011C4.67 6.10911 0.5 7.91811 0.5 11.4341C0.5 17.6771 0.5 37.1211 0.5 41.4171C0.5 51.6681 12.339 65.8501 54.157 65.8501C95.977 65.8501 107.814 51.6681 107.814 41.4171C107.814 37.1211 107.814 17.6771 107.814 11.4341C107.813 7.75011 103.238 5.94011 99.467 5.07411Z" fill="#363636"/>
<path d="M21.061 39.4591H86.584C92.148 39.4591 96.658 34.9461 96.658 29.3821V10.9351C96.658 5.37211 92.148 0.860107 86.584 0.860107H21.061C15.497 0.860107 10.986 5.37111 10.986 10.9351V29.3821C10.986 34.9461 15.497 39.4591 21.061 39.4591ZM84.195 10.4681C85.062 10.4681 85.764 11.1711 85.764 12.0381C85.764 12.9041 85.062 13.6071 84.195 13.6071C83.328 13.6071 82.627 12.9041 82.627 12.0381C82.627 11.1701 83.328 10.4681 84.195 10.4681ZM84.195 14.5071C85.062 14.5071 85.764 15.2101 85.764 16.0751C85.764 16.9421 85.062 17.6441 84.195 17.6441C83.328 17.6441 82.627 16.9421 82.627 16.0751C82.627 15.2101 83.328 14.5071 84.195 14.5071ZM84.195 18.5461C85.062 18.5461 85.764 19.2481 85.764 20.1151C85.764 20.9811 85.062 21.6841 84.195 21.6841C83.328 21.6841 82.627 20.9811 82.627 20.1151C82.627 19.2481 83.328 18.5461 84.195 18.5461ZM84.195 22.3731C85.062 22.3731 85.764 23.0771 85.764 23.9421C85.764 24.8091 85.062 25.5101 84.195 25.5101C83.328 25.5101 82.627 24.8091 82.627 23.9421C82.627 23.0761 83.328 22.3731 84.195 22.3731ZM84.195 26.4121C85.062 26.4121 85.764 27.1141 85.764 27.9811C85.764 28.8461 85.062 29.5491 84.195 29.5491C83.328 29.5491 82.627 28.8451 82.627 27.9811C82.627 27.1141 83.328 26.4121 84.195 26.4121ZM80.156 10.4681C81.023 10.4681 81.724 11.1711 81.724 12.0381C81.724 12.9041 81.023 13.6071 80.156 13.6071C79.291 13.6071 78.588 12.9041 78.588 12.0381C78.588 11.1701 79.291 10.4681 80.156 10.4681ZM80.156 26.4121C81.023 26.4121 81.724 27.1141 81.724 27.9811C81.724 28.8461 81.023 29.5491 80.156 29.5491C79.291 29.5491 78.588 28.8451 78.588 27.9811C78.588 27.1141 79.291 26.4121 80.156 26.4121ZM76.119 10.4681C76.984 10.4681 77.687 11.1711 77.687 12.0381C77.687 12.9041 76.984 13.6071 76.119 13.6071C75.252 13.6071 74.55 12.9041 74.55 12.0381C74.55 11.1701 75.252 10.4681 76.119 10.4681ZM76.119 14.5071C76.984 14.5071 77.687 15.2101 77.687 16.0751C77.687 16.9421 76.984 17.6441 76.119 17.6441C75.252 17.6441 74.55 16.9421 74.55 16.0751C74.55 15.2101 75.252 14.5071 76.119 14.5071ZM76.119 18.5461C76.984 18.5461 77.687 19.2481 77.687 20.1151C77.687 20.9811 76.984 21.6841 76.119 21.6841C75.252 21.6841 74.55 20.9811 74.55 20.1151C74.55 19.2481 75.252 18.5461 76.119 18.5461ZM76.119 22.3731C76.984 22.3731 77.687 23.0771 77.687 23.9421C77.687 24.8091 76.984 25.5101 76.119 25.5101C75.252 25.5101 74.55 24.8091 74.55 23.9421C74.55 23.0761 75.252 22.3731 76.119 22.3731ZM76.119 26.4121C76.984 26.4121 77.687 27.1141 77.687 27.9811C77.687 28.8461 76.984 29.5491 76.119 29.5491C75.252 29.5491 74.55 28.8451 74.55 27.9811C74.55 27.1141 75.252 26.4121 76.119 26.4121ZM68.465 10.4681C69.332 10.4681 70.033 11.1711 70.033 12.0381C70.033 12.9041 69.332 13.6071 68.465 13.6071C67.598 13.6071 66.897 12.9041 66.897 12.0381C66.896 11.1701 67.6 10.4681 68.465 10.4681ZM68.465 18.5461C69.332 18.5461 70.033 19.2481 70.033 20.1151C70.033 20.9811 69.332 21.6841 68.465 21.6841C67.598 21.6841 66.897 20.9811 66.897 20.1151C66.896 19.2481 67.6 18.5461 68.465 18.5461ZM68.465 22.4271C69.332 22.4271 70.033 23.1281 70.033 23.9951C70.033 24.8601 69.332 25.5641 68.465 25.5641C67.598 25.5641 66.897 24.8601 66.897 23.9951C66.896 23.1281 67.6 22.4271 68.465 22.4271ZM68.465 26.4121C69.332 26.4121 70.033 27.1141 70.033 27.9811C70.033 28.8461 69.332 29.5491 68.465 29.5491C67.598 29.5491 66.897 28.8451 66.897 27.9811C66.896 27.1141 67.6 26.4121 68.465 26.4121ZM64.426 10.4681C65.293 10.4681 65.996 11.1711 65.996 12.0381C65.996 12.9041 65.293 13.6071 64.426 13.6071C63.561 13.6071 62.857 12.9041 62.857 12.0381C62.856 11.1701 63.561 10.4681 64.426 10.4681ZM64.426 18.5461C65.293 18.5461 65.996 19.2481 65.996 20.1151C65.996 20.9811 65.293 21.6841 64.426 21.6841C63.561 21.6841 62.857 20.9811 62.857 20.1151C62.856 19.2481 63.561 18.5461 64.426 18.5461ZM64.426 26.4121C65.293 26.4121 65.996 27.1141 65.996 27.9811C65.996 28.8461 65.293 29.5491 64.426 29.5491C63.561 29.5491 62.857 28.8451 62.857 27.9811C62.856 27.1141 63.561 26.4121 64.426 26.4121ZM60.388 10.4681C61.253 10.4681 61.957 11.1711 61.957 12.0381C61.957 12.9041 61.253 13.6071 60.388 13.6071C59.521 13.6071 58.82 12.9041 58.82 12.0381C58.819 11.1701 59.521 10.4681 60.388 10.4681ZM60.388 14.5071C61.253 14.5071 61.957 15.2101 61.957 16.0751C61.957 16.9421 61.253 17.6441 60.388 17.6441C59.521 17.6441 58.82 16.9421 58.82 16.0751C58.819 15.2101 59.521 14.5071 60.388 14.5071ZM60.388 18.5461C61.253 18.5461 61.957 19.2481 61.957 20.1151C61.957 20.9811 61.253 21.6841 60.388 21.6841C59.521 21.6841 58.82 20.9811 58.82 20.1151C58.819 19.2481 59.521 18.5461 60.388 18.5461ZM60.388 26.4121C61.253 26.4121 61.957 27.1141 61.957 27.9811C61.957 28.8461 61.253 29.5491 60.388 29.5491C59.521 29.5491 58.82 28.8451 58.82 27.9811C58.819 27.1141 59.521 26.4121 60.388 26.4121ZM52.098 10.4681C52.965 10.4681 53.667 11.1711 53.667 12.0381C53.667 12.9041 52.965 13.6071 52.098 13.6071C51.231 13.6071 50.53 12.9041 50.53 12.0381C50.529 11.1701 51.231 10.4681 52.098 10.4681ZM52.098 14.5071C52.965 14.5071 53.667 15.2101 53.667 16.0751C53.667 16.9421 52.965 17.6441 52.098 17.6441C51.231 17.6441 50.53 16.9421 50.53 16.0751C50.529 15.2101 51.231 14.5071 52.098 14.5071ZM52.098 18.5461C52.965 18.5461 53.667 19.2481 53.667 20.1151C53.667 20.9811 52.965 21.6841 52.098 21.6841C51.231 21.6841 50.53 20.9811 50.53 20.1151C50.529 19.2481 51.231 18.5461 52.098 18.5461ZM52.098 22.4271C52.965 22.4271 53.667 23.1281 53.667 23.9951C53.667 24.8601 52.965 25.5641 52.098 25.5641C51.231 25.5641 50.53 24.8601 50.53 23.9951C50.529 23.1281 51.231 22.4271 52.098 22.4271ZM52.098 26.4121C52.965 26.4121 53.667 27.1141 53.667 27.9811C53.667 28.8461 52.965 29.5491 52.098 29.5491C51.231 29.5491 50.53 28.8451 50.53 27.9811C50.529 27.1141 51.231 26.4121 52.098 26.4121ZM48.059 14.5071C48.926 14.5071 49.627 15.2101 49.627 16.0751C49.627 16.9421 48.926 17.6441 48.059 17.6441C47.192 17.6441 46.49 16.9421 46.49 16.0751C46.49 15.2101 47.191 14.5071 48.059 14.5071ZM39.557 14.2951C40.422 14.2951 41.126 14.9981 41.126 15.8631C41.126 16.7301 40.422 17.4321 39.557 17.4321C38.69 17.4321 37.986 16.7291 37.986 15.8631C37.986 14.9981 38.689 14.2951 39.557 14.2951ZM39.557 18.3331C40.422 18.3331 41.126 19.0361 41.126 19.9031C41.126 20.7691 40.422 21.4731 39.557 21.4731C38.69 21.4731 37.986 20.7691 37.986 19.9031C37.986 19.0361 38.689 18.3331 39.557 18.3331ZM35.518 10.2551C36.383 10.2551 37.086 10.9581 37.086 11.8251C37.086 12.6911 36.382 13.3931 35.518 13.3931C34.651 13.3931 33.949 12.6901 33.949 11.8251C33.949 10.9581 34.65 10.2551 35.518 10.2551ZM35.518 14.2951C36.383 14.2951 37.086 14.9981 37.086 15.8631C37.086 16.7301 36.382 17.4321 35.518 17.4321C34.651 17.4321 33.949 16.7291 33.949 15.8631C33.949 14.9981 34.65 14.2951 35.518 14.2951ZM35.518 18.3331C36.383 18.3331 37.086 19.0361 37.086 19.9031C37.086 20.7691 36.382 21.4731 35.518 21.4731C34.651 21.4731 33.949 20.7691 33.949 19.9031C33.949 19.0361 34.65 18.3331 35.518 18.3331ZM35.518 22.3731C36.383 22.3731 37.086 23.0771 37.086 23.9421C37.086 24.8091 36.382 25.5101 35.518 25.5101C34.651 25.5101 33.949 24.8091 33.949 23.9421C33.949 23.0761 34.65 22.3731 35.518 22.3731ZM31.264 14.2951C32.131 14.2951 32.833 14.9981 32.833 15.8631C32.833 16.7301 32.131 17.4321 31.264 17.4321C30.397 17.4321 29.696 16.7291 29.696 15.8631C29.696 14.9981 30.397 14.2951 31.264 14.2951ZM31.264 18.3331C32.131 18.3331 32.833 19.0361 32.833 19.9031C32.833 20.7691 32.131 21.4731 31.264 21.4731C30.397 21.4731 29.696 20.7691 29.696 19.9031C29.696 19.0361 30.397 18.3331 31.264 18.3331ZM31.264 22.3731C32.131 22.3731 32.833 23.0771 32.833 23.9421C32.833 24.8091 32.131 25.5101 31.264 25.5101C30.397 25.5101 29.696 24.8091 29.696 23.9421C29.696 23.0761 30.397 22.3731 31.264 22.3731ZM31.264 26.4121C32.131 26.4121 32.833 27.1141 32.833 27.9811C32.833 28.8461 32.131 29.5491 31.264 29.5491C30.397 29.5491 29.696 28.8451 29.696 27.9811C29.696 27.1141 30.397 26.4121 31.264 26.4121ZM26.8 10.2551C27.667 10.2551 28.371 10.9581 28.371 11.8251C28.371 12.6911 27.667 13.3931 26.8 13.3931C25.935 13.3931 25.231 12.6901 25.231 11.8251C25.231 10.9581 25.935 10.2551 26.8 10.2551ZM26.8 14.2951C27.667 14.2951 28.371 14.9981 28.371 15.8631C28.371 16.7301 27.667 17.4321 26.8 17.4321C25.935 17.4321 25.231 16.7291 25.231 15.8631C25.231 14.9981 25.935 14.2951 26.8 14.2951ZM26.8 18.3331C27.667 18.3331 28.371 19.0361 28.371 19.9031C28.371 20.7691 27.667 21.4731 26.8 21.4731C25.935 21.4731 25.231 20.7691 25.231 19.9031C25.231 19.0361 25.935 18.3331 26.8 18.3331ZM26.8 22.3731C27.667 22.3731 28.371 23.0771 28.371 23.9421C28.371 24.8091 27.667 25.5101 26.8 25.5101C25.935 25.5101 25.231 24.8091 25.231 23.9421C25.231 23.0761 25.935 22.3731 26.8 22.3731ZM22.763 14.2951C23.628 14.2951 24.332 14.9981 24.332 15.8631C24.332 16.7301 23.628 17.4321 22.763 17.4321C21.896 17.4321 21.194 16.7291 21.194 15.8631C21.194 14.9981 21.896 14.2951 22.763 14.2951ZM22.763 18.3331C23.628 18.3331 24.332 19.0361 24.332 19.9031C24.332 20.7691 23.628 21.4731 22.763 21.4731C21.896 21.4731 21.194 20.7691 21.194 19.9031C21.194 19.0361 21.896 18.3331 22.763 18.3331Z" fill="#363636"/>
</svg>
