<svg width="98" height="55" viewBox="0 0 98 55" fill="none" xmlns="http://www.w3.org/2000/svg">
<path d="M84.6314 32.639V20.003C84.6314 18.694 85.6764 17.633 86.9664 17.633L95.2924 19.214V11.02C95.2924 8.66497 93.5844 7.58897 91.0904 6.75497L67.9034 0.174968C69.5194 1.56597 69.7924 2.21497 69.7924 4.57097V49.78C69.7924 52.136 69.3424 53.846 67.8254 54.99L91.0904 47.925C93.4914 47.092 95.2924 43.709 95.2924 41.353V33.44L86.9664 35.007C85.6764 35.009 84.6314 33.947 84.6314 32.639Z" fill="#363636"/>
<path d="M95.6294 20.979L88.0314 19.535C87.0234 19.535 86.2074 20.364 86.2074 21.386V31.254C86.2074 32.277 87.0234 33.106 88.0314 33.106L95.6294 31.675C96.7834 31.256 97.4534 30.846 97.4534 29.823V22.83C97.4534 21.808 96.6874 21.323 95.6294 20.979Z" fill="#363636"/>
<path d="M67.6704 4.48297C67.6704 -0.597033 63.4384 0.0239677 63.4384 0.0239677C63.4384 0.0239677 6.33241 4.73797 3.33841 5.14497C0.344415 5.55197 0.501415 9.53197 0.501415 9.53197C0.501415 9.53197 0.500415 42.069 0.500415 45.812C0.500415 49.555 3.09941 49.565 3.09941 49.565L19.5764 50.968L27.7124 39.3C27.7124 39.3 28.8214 37.472 30.2174 37.472C31.6144 37.472 32.6494 39.333 32.6494 39.333L41.7104 52.854C41.7104 52.854 60.6054 54.763 64.2314 54.763C67.8574 54.762 67.6704 49.739 67.6704 49.739C67.6704 49.739 67.6704 9.56297 67.6704 4.48297ZM13.4824 37.192C9.78442 37.192 6.78641 32.591 6.78641 26.917C6.78641 21.243 9.78442 16.642 13.4824 16.642C17.1804 16.642 20.1784 21.243 20.1784 26.917C20.1784 32.591 17.1804 37.192 13.4824 37.192ZM49.6404 38.618C44.9784 38.618 41.1994 33.379 41.1994 26.917C41.1994 20.454 44.9794 15.215 49.6404 15.215C54.3024 15.215 58.0824 20.454 58.0824 26.917C58.0824 33.379 54.3024 38.618 49.6404 38.618Z" fill="#363636"/>
</svg>
