<svg width="57" height="98" viewBox="0 0 57 98" fill="none" xmlns="http://www.w3.org/2000/svg">
<path d="M54.994 32.197H53.479V27.557C53.479 22.505 49.392 18.371 44.397 18.371H9.582C4.586 18.372 0.5 22.505 0.5 27.557V70.425C0.5 75.477 4.587 79.61 9.583 79.61H44.398C49.393 79.61 53.48 75.477 53.48 70.425V67.01H54.995C55.41 67.01 55.752 66.666 55.752 66.246V52.467C55.752 52.046 55.41 51.701 54.995 51.701H53.48V42.913H54.995C55.827 42.913 56.509 42.225 56.509 41.382V33.728C56.508 32.886 55.826 32.197 54.994 32.197ZM34.582 29.088C37.508 29.088 39.881 31.486 39.881 34.446C39.881 37.406 37.508 39.804 34.582 39.804C31.656 39.804 29.284 37.406 29.284 34.446C29.284 31.486 31.656 29.088 34.582 29.088ZM19.445 29.088C22.37 29.088 24.743 31.486 24.743 34.446C24.743 37.406 22.37 39.804 19.445 39.804C16.519 39.804 14.147 37.406 14.147 34.446C14.147 31.486 16.519 29.088 19.445 29.088ZM5.797 49.397C5.797 46.438 8.168 44.039 11.095 44.039C14.021 44.039 16.393 46.438 16.393 49.397C16.393 52.356 14.02 54.755 11.095 54.755C8.168 54.756 5.797 52.356 5.797 49.397ZM19.445 68.894C16.519 68.894 14.147 66.496 14.147 63.536C14.147 60.576 16.519 58.178 19.445 58.178C22.37 58.178 24.743 60.576 24.743 63.536C24.743 66.496 22.37 68.894 19.445 68.894ZM20.935 48.991C20.935 45.609 23.646 42.867 26.99 42.867C30.334 42.867 33.045 45.609 33.045 48.991C33.045 52.373 30.334 55.115 26.99 55.115C23.646 55.114 20.935 52.373 20.935 48.991ZM34.582 68.894C31.656 68.894 29.284 66.496 29.284 63.536C29.284 60.576 31.656 58.178 34.582 58.178C37.508 58.178 39.881 60.576 39.881 63.536C39.881 66.496 37.508 68.894 34.582 68.894ZM42.884 54.756C39.957 54.756 37.586 52.357 37.586 49.398C37.586 46.439 39.957 44.04 42.884 44.04C45.81 44.04 48.182 46.439 48.182 49.398C48.182 52.356 45.81 54.756 42.884 54.756Z" fill="#363636"/>
<path d="M10.146 15.31H43.833C44.676 15.31 45.265 14.629 45.139 13.796L43.523 3.028C43.523 3.028 43.523 3.027 43.521 3.026C43.271 1.362 41.689 0 40.006 0H13.974C12.288 0 10.706 1.362 10.457 3.028L8.842 13.795C8.717 14.628 9.303 15.31 10.146 15.31Z" fill="#363636"/>
<path d="M43.833 82.671H10.146C9.303 82.671 8.717 83.354 8.842 84.187L10.457 94.954C10.707 96.62 12.289 97.982 13.973 97.982H40.005C41.689 97.982 43.271 96.62 43.522 94.956V94.954L45.137 84.187C45.265 83.354 44.676 82.671 43.833 82.671Z" fill="#363636"/>
</svg>
