<svg width="133" height="69" viewBox="0 0 133 69" fill="none" xmlns="http://www.w3.org/2000/svg">
<path d="M12.5523 0.257913C7.00738 0.745213 2.33838 1.85073 1.07528 2.93033C0.352575 3.54653 0.352575 3.54653 0.842875 4.08653C1.48738 4.80623 4.55628 5.73151 8.09048 6.32281C12.0885 6.99081 20.6003 7.01622 21.8136 6.37412C23.0255 5.70612 23.4376 4.96048 23.4376 3.39268C23.4376 1.77398 22.8185 0.976689 21.2198 0.540189C19.774 0.154289 15.4415 1.33812e-05 12.5523 0.257913Z" fill="#363636"/>
<path d="M26.2745 0.488281C26.1451 0.771481 26.0162 2.5962 26.0162 4.6001C26.0162 8.6611 26.1715 8.3784 23.8243 8.5332L22.7935 8.6103L22.5352 13.6986L21.3487 13.9818C18.7696 14.6498 17.3497 16.577 17.5572 19.2762C17.6851 21.2034 18.588 22.617 20.1358 23.3631C21.2447 23.8763 21.6055 23.9012 31.3819 23.9012C36.9268 23.9012 41.5191 23.9798 41.5704 24.0819C41.6212 24.2103 40.461 33.4891 38.9908 44.7206C37.546 55.9511 36.3077 65.7177 36.2823 66.3866C36.231 68.0038 37.1085 69.0077 38.63 69.0077C39.8673 69.0077 40.6417 68.3661 40.9513 67.1063C41.0807 66.5926 42.4469 56.7733 43.9694 45.285C45.4914 33.8221 46.8322 24.4163 46.9098 24.4163C47.0128 24.4163 47.9928 25.8294 49.1022 27.552C52.0421 32.178 51.5011 31.8689 56.7375 31.8689H61.0959V37.4987L55.9631 37.5758C51.2429 37.6529 50.7531 37.7028 50.0818 38.191C48.509 39.3482 48.4568 39.606 48.4568 49.1676C48.4568 58.7018 48.4832 58.9596 49.9793 60.2174L50.8304 60.9127H82.1956L83.0462 60.2174C84.5423 58.9596 84.5667 58.7018 84.5667 49.1676C84.5667 39.6061 84.5159 39.3483 82.9437 38.191C82.2728 37.7027 81.7826 37.6529 77.0619 37.5758L71.9301 37.4987V31.8689H76.2895C81.5239 31.8689 80.9829 32.178 83.9233 27.552C85.0337 25.8293 86.0131 24.4163 86.1167 24.4163C86.1929 24.4163 87.5356 33.8221 89.0562 45.285C90.5787 56.7733 91.9458 66.5926 92.0748 67.1063C92.3844 68.3661 93.1568 69.0077 94.3961 69.0077C95.9176 69.0077 96.7955 68.0038 96.7428 66.3866C96.7174 65.7177 95.4791 55.9511 94.0338 44.7206C92.565 33.4892 91.4029 24.2103 91.4557 24.0819C91.5065 23.9798 96.0973 23.9012 101.645 23.9012C111.421 23.9012 111.781 23.8763 112.889 23.3631C114.437 22.617 115.339 21.2034 115.468 19.2762C115.675 16.577 114.257 14.6497 111.677 13.9818L110.49 13.6986L110.234 8.6103L109.202 8.5332C106.855 8.3784 107.008 8.6611 107.008 4.6001C107.008 2.5962 106.88 0.771481 106.752 0.488281C106.545 0.128381 106.209 0 105.384 0C104.765 0 104.146 0.128394 103.964 0.308594C103.758 0.514194 103.655 1.77392 103.655 4.24072C103.655 6.70802 103.552 7.9678 103.345 8.1728C103.166 8.3525 102.444 8.48091 101.696 8.48091C100.07 8.48091 100.044 8.53311 100.044 11.5913V13.8784H32.9806V11.5913C32.9806 8.53321 32.9557 8.48091 31.3307 8.48091C30.5822 8.48091 29.8605 8.3525 29.6803 8.1728C29.4728 7.9677 29.3702 6.70802 29.3702 4.24072C29.3702 1.77392 29.2672 0.514094 29.0606 0.308594C28.8799 0.128394 28.2603 0 27.6417 0C26.817 0 26.4815 0.128481 26.2745 0.488281ZM69.1173 40.6084C72.006 41.5068 74.5089 44.001 75.2833 46.7764C75.7218 48.3194 75.5929 50.9922 74.9991 52.5596C74.3028 54.4346 72.3145 56.5694 70.4337 57.4951C69.1437 58.1367 68.6798 58.2139 66.5128 58.2139C64.3463 58.2139 63.8819 58.1368 62.5924 57.4951C60.7081 56.5693 58.7233 54.4346 58.0265 52.5596C57.4337 50.9922 57.3038 48.3194 57.7428 46.7764C58.4908 44.0528 60.9923 41.5069 63.8043 40.6084C65.8165 39.9659 67.1046 39.9659 69.1173 40.6084Z" fill="#363636"/>
<path d="M64.294 44.4375C62.2574 45.3633 60.7872 48.0869 61.2252 50.168C61.9991 53.8448 66.0484 55.7207 69.2208 53.8701C71.2062 52.7119 72.212 50.3232 71.672 48.0869C71.1036 45.6963 68.9376 43.9492 66.5128 43.9492C65.8673 43.9493 64.8873 44.1807 64.294 44.4375Z" fill="#363636"/>
<path d="M36.5919 0.154283C32.6715 0.822283 32.0787 1.28518 32.0787 3.59808C32.0787 5.42278 32.5426 6.0141 34.3468 6.5537C35.8966 7.0161 41.5192 7.06787 44.8468 6.68207C51.7076 5.85977 56.1686 4.13766 54.5455 2.93006C53.2804 2.03016 49.6432 1.05358 45.4913 0.539977C43.0157 0.231977 37.4952 -1.67042e-05 36.5919 0.154283Z" fill="#363636"/>
<path d="M89.9845 0.257917C83.6652 0.848217 78.1202 2.339 78.1202 3.4439C78.1202 5.1661 85.961 6.91361 93.7501 6.93951C99.5538 6.93951 100.946 6.2974 100.946 3.5982C100.946 1.774 100.327 0.976616 98.5734 0.514216C96.9239 0.102616 92.8985 1.71959e-05 89.9845 0.257917Z" fill="#363636"/>
<path d="M113.276 0.283308C111.496 0.514308 110.258 1.05383 109.846 1.77403C109.459 2.54453 109.536 4.67781 110 5.34581C110.928 6.65681 111.652 6.81109 117.068 6.81109C120.73 6.81109 122.87 6.68221 124.935 6.32281C128.469 5.73151 131.538 4.80623 132.183 4.08653C132.673 3.54653 132.673 3.54653 131.95 2.93033C130.609 1.79943 125.992 0.745217 120.034 0.257917C116.553 -0.0252828 115.546 -0.0252922 113.276 0.283308Z" fill="#363636"/>
</svg>
